<svg xmlns="http://www.w3.org/2000/svg" viewBox="0 0 200 200" width="100%" height="100%">
  <defs>
    <linearGradient id="purpleGrad" x1="0%" y1="0%" x2="100%" y2="100%">
      <stop offset="0%" stop-color="#4A2E6B" />
      <stop offset="100%" stop-color="#2A1847" />
    </linearGradient>
    <linearGradient id="orangeGrad" x1="0%" y1="0%" x2="100%" y2="100%">
      <stop offset="0%" stop-color="#FF8F66" />
      <stop offset="100%" stop-color="#FF6B35" />
    </linearGradient>
  </defs>
  <circle cx="100" cy="100" r="80" fill="url(#purpleGrad)" opacity="0.05" />
  <circle cx="100" cy="100" r="60" fill="none" stroke="url(#purpleGrad)" stroke-width="2" stroke-dasharray="6,4" opacity="0.3" />
  <!-- Expert Figure -->
  <path d="M70,140 C70,120 80,110 100,110 C120,110 130,120 130,140" fill="none" stroke="url(#purpleGrad)" stroke-width="4" stroke-linecap="round" />
  <circle cx="100" cy="85" r="20" fill="none" stroke="url(#purpleGrad)" stroke-width="4" />
  <!-- Glowing Lightbulb -->
  <path d="M100,35 C90,35 85,42 85,50 C85,58 92,60 95,65 L95,70 L105,70 L105,65 C108,60 115,58 115,50 C115,42 110,35 100,35 Z" fill="url(#orangeGrad)" />
  <rect x="97" y="72" width="6" height="3" rx="1.5" fill="#FF6B35" />
  <!-- Glow Rays -->
  <line x1="100" y1="20" x2="100" y2="28" stroke="#FF6B35" stroke-width="2" stroke-linecap="round" />
  <line x1="75" y1="35" x2="81" y2="40" stroke="#FF6B35" stroke-width="2" stroke-linecap="round" />
  <line x1="125" y1="35" x2="119" y2="40" stroke="#FF6B35" stroke-width="2" stroke-linecap="round" />
  <line x1="68" y1="55" x2="76" y2="55" stroke="#FF6B35" stroke-width="2" stroke-linecap="round" />
  <line x1="132" y1="55" x2="124" y2="55" stroke="#FF6B35" stroke-width="2" stroke-linecap="round" />
</svg>
