<svg xmlns="http://www.w3.org/2000/svg" viewBox="0 0 200 200" width="100%" height="100%">
  <defs>
    <linearGradient id="purpleGrad" x1="0%" y1="0%" x2="100%" y2="100%">
      <stop offset="0%" stop-color="#4A2E6B" />
      <stop offset="100%" stop-color="#2A1847" />
    </linearGradient>
    <linearGradient id="orangeGrad" x1="0%" y1="0%" x2="100%" y2="100%">
      <stop offset="0%" stop-color="#FF8F66" />
      <stop offset="100%" stop-color="#FF6B35" />
    </linearGradient>
  </defs>
  <circle cx="100" cy="100" r="80" fill="url(#purpleGrad)" opacity="0.05" />
  <!-- Org structure lines -->
  <path d="M100,75 L100,105 M100,90 L50,90 L50,115 M100,90 L150,90 L150,115" fill="none" stroke="url(#purpleGrad)" stroke-width="2" stroke-linecap="round" opacity="0.5" />
  <!-- Lead node -->
  <circle cx="100" cy="55" r="16" fill="url(#orangeGrad)" />
  <path d="M84,80 C84,70 90,66 100,66 C110,66 116,70 116,80" fill="url(#orangeGrad)" opacity="0.8" />
  <!-- Sub node 1 -->
  <circle cx="50" cy="125" r="10" fill="none" stroke="url(#purpleGrad)" stroke-width="3" />
  <path d="M40,145 C40,138 43,135 50,135 C57,135 60,138 60,145" fill="none" stroke="url(#purpleGrad)" stroke-width="3" stroke-linecap="round" />
  <!-- Sub node 2 -->
  <circle cx="100" cy="125" r="10" fill="none" stroke="url(#purpleGrad)" stroke-width="3" />
  <path d="M90,145 C90,138 93,135 100,135 C107,135 110,138 110,145" fill="none" stroke="url(#purpleGrad)" stroke-width="3" stroke-linecap="round" />
  <!-- Sub node 3 -->
  <circle cx="150" cy="125" r="10" fill="none" stroke="url(#purpleGrad)" stroke-width="3" />
  <path d="M140,145 C140,138 143,135 150,135 C157,135 160,138 160,145" fill="none" stroke="url(#purpleGrad)" stroke-width="3" stroke-linecap="round" />
</svg>
